# xmcd CD database file
#
# Track frame offsets:
#	150
#	12770
#	27142
#	42927
#	57350
#	72013
#	86919
#	100321
#	117090
#	132334
#	147636
#	163883
#	182057
#	197032
#	212228
#	228129
#	244981
#	263302
#	280453
#	298198
#	317827
#	334599
#
# Disc length: 4645 seconds
#
# Revision: 1
# Processed by: cddbd v1.5.2PL0 Copyright (c) Steve Scherf et al.
# Submitted via: CDex 1.51
#
DISCID=4b122316
DTITLE=The Bellamy Brothers - Our Norwegian Hits
DYEAR=2001
DGENRE=Country
TTITLE0=Let your love flow
TTITLE1=If i said you had a beautiful body
TTITLE2=Sugar daddy
TTITLE3=Big hair
TTITLE4=Dancin' cowboys
TTITLE5=Lovers live longer
TTITLE6=Do you love as good as you look
TTITLE7=For all the wrong reasons
TTITLE8=Redneck girl
TTITLE9=I need more of you
TTITLE10=Crazy from the hart
TTITLE11=Old hippie
TTITLE12=Big love
TTITLE13=On a summernight
TTITLE14=Heartbreak overload
TTITLE15=Over the line
TTITLE16=Afterglow
TTITLE17=Guilty of the crime
TTITLE18=Shine them buckles
TTITLE19=You ain't just whistlin' dixie
TTITLE20=Santa Fe
TTITLE21=The ex-files (Duet with Buck Owens)
EXTD=YEAR: 2001
EXTT0=
EXTT1=
EXTT2=
EXTT3=
EXTT4=
EXTT5=
EXTT6=
EXTT7=
EXTT8=
EXTT9=
EXTT10=
EXTT11=
EXTT12=
EXTT13=
EXTT14=
EXTT15=
EXTT16=
EXTT17=
EXTT18=
EXTT19=
EXTT20=
EXTT21=
PLAYORDER=
